HIERARCHY
ROOT mixamorig:Hips
{
	OFFSET 0.000000 104.274902 0.000000
	CHANNELS 6 Xposition Yposition Zposition Xrotation Yrotation Zrotation
	JOINT mixamorig:Spine
	{
		OFFSET 0.000000 10.181549 0.131524
		CHANNELS 6 Xposition Yposition Zposition Xrotation Yrotation Zrotation
		JOINT mixamorig:Spine1
		{
			OFFSET 0.000000 9.893990 -1.470706
			CHANNELS 3 Xrotation Yrotation Zrotation
			JOINT mixamorig:Spine2
			{
				OFFSET 0.000000 9.220787 -1.370636
				CHANNELS 3 Xrotation Yrotation Zrotation
				JOINT mixamorig:Neck
				{
					OFFSET 0.000000 16.740372 -2.049023
					CHANNELS 6 Xposition Yposition Zposition Xrotation Yrotation Zrotation
					JOINT mixamorig:Head
					{
						OFFSET 0.000000 9.617859 1.684975
						CHANNELS 6 Xposition Yposition Zposition Xrotation Yrotation Zrotation
						JOINT mixamorig:HeadTop_End
						{
							OFFSET 0.000000 22.037369 7.501070
							CHANNELS 6 Xposition Yposition Zposition Xrotation Yrotation Zrotation
							End Site
							{
								OFFSET 0.000000 23.106567 -2.828246
							}
						}
					}
				}
				JOINT mixamorig:RightShoulder
				{
					OFFSET -4.570000 11.014862 -2.160841
					CHANNELS 6 Xposition Yposition Zposition Xrotation Yrotation Zrotation
					JOINT mixamorig:RightArm
					{
						OFFSET -10.592869 -0.524796 -2.232105
						CHANNELS 3 Xrotation Yrotation Zrotation
						JOINT mixamorig:RightForeArm
						{
							OFFSET -27.841499 0.000000 0.000000
							CHANNELS 3 Xrotation Yrotation Zrotation
							JOINT mixamorig:RightHand
							{
								OFFSET -28.328800 0.000000 0.000000
								CHANNELS 3 Xrotation Yrotation Zrotation
								JOINT mixamorig:RightHandThumb1
								{
									OFFSET -2.464798 -1.573990 2.681910
									CHANNELS 6 Xposition Yposition Zposition Xrotation Yrotation Zrotation
									JOINT mixamorig:RightHandThumb2
									{
										OFFSET -3.244789 -1.873367 1.873378
										CHANNELS 3 Xrotation Yrotation Zrotation
										JOINT mixamorig:RightHandThumb3
										{
											OFFSET -2.646255 -1.527817 1.527816
											CHANNELS 3 Xrotation Yrotation Zrotation
											JOINT mixamorig:RightHandThumb4
											{
												OFFSET -1.994583 -1.151581 1.151575
												CHANNELS 3 Xrotation Yrotation Zrotation
												End Site
												{
													OFFSET -1.860176 -1.142715 1.365483
												}
											}
										}
									}
								}
								JOINT mixamorig:RightHandIndex1
								{
									OFFSET -9.108299 -0.517883 2.259803
									CHANNELS 6 Xposition Yposition Zposition Xrotation Yrotation Zrotation
									JOINT mixamorig:RightHandIndex2
									{
										OFFSET -3.700005 0.000000 0.000000
										CHANNELS 3 Xrotation Yrotation Zrotation
										JOINT mixamorig:RightHandIndex3
										{
											OFFSET -2.849998 0.000000 0.000000
											CHANNELS 3 Xrotation Yrotation Zrotation
											JOINT mixamorig:RightHandIndex4
											{
												OFFSET -2.772202 0.000000 0.000000
												CHANNELS 3 Xrotation Yrotation Zrotation
												End Site
												{
													OFFSET -2.772202 0.000000 -0.000484
												}
											}
										}
									}
								}
								JOINT mixamorig:RightHandMiddle1
								{
									OFFSET -9.532501 0.000000 0.000000
									CHANNELS 6 Xposition Yposition Zposition Xrotation Yrotation Zrotation
									JOINT mixamorig:RightHandMiddle2
									{
										OFFSET -3.699997 0.000000 0.000000
										CHANNELS 3 Xrotation Yrotation Zrotation
										JOINT mixamorig:RightHandMiddle3
										{
											OFFSET -2.950005 0.000000 0.000000
											CHANNELS 3 Xrotation Yrotation Zrotation
											JOINT mixamorig:RightHandMiddle4
											{
												OFFSET -2.946602 0.000000 0.000000
												CHANNELS 3 Xrotation Yrotation Zrotation
												End Site
												{
													OFFSET -2.946594 0.000000 -0.000982
												}
											}
										}
									}
								}
								JOINT mixamorig:RightHandRing1
								{
									OFFSET -9.103600 -0.043106 -1.865100
									CHANNELS 6 Xposition Yposition Zposition Xrotation Yrotation Zrotation
									JOINT mixamorig:RightHandRing2
									{
										OFFSET -3.379303 0.000000 0.000000
										CHANNELS 3 Xrotation Yrotation Zrotation
										JOINT mixamorig:RightHandRing3
										{
											OFFSET -2.889702 0.000000 0.000000
											CHANNELS 3 Xrotation Yrotation Zrotation
											JOINT mixamorig:RightHandRing4
											{
												OFFSET -2.638794 0.000000 0.000000
												CHANNELS 3 Xrotation Yrotation Zrotation
												End Site
												{
													OFFSET -2.638794 0.000000 0.004219
												}
											}
										}
									}
								}
								JOINT mixamorig:RightHandPinky1
								{
									OFFSET -8.076698 -0.486725 -3.806297
									CHANNELS 6 Xposition Yposition Zposition Xrotation Yrotation Zrotation
									JOINT mixamorig:RightHandPinky2
									{
										OFFSET -3.600006 0.000000 0.000000
										CHANNELS 3 Xrotation Yrotation Zrotation
										JOINT mixamorig:RightHandPinky3
										{
											OFFSET -2.099998 0.000000 0.000000
											CHANNELS 3 Xrotation Yrotation Zrotation
											JOINT mixamorig:RightHandPinky4
											{
												OFFSET -2.115799 0.000000 0.000000
												CHANNELS 3 Xrotation Yrotation Zrotation
												End Site
												{
													OFFSET -2.115799 0.000000 0.000174
												}
											}
										}
									}
								}
							}
						}
					}
				}
				JOINT mixamorig:LeftShoulder
				{
					OFFSET 4.570400 11.014664 -2.160817
					CHANNELS 6 Xposition Yposition Zposition Xrotation Yrotation Zrotation
					JOINT mixamorig:LeftArm
					{
						OFFSET 10.592365 -0.524597 -2.232113
						CHANNELS 3 Xrotation Yrotation Zrotation
						JOINT mixamorig:LeftForeArm
						{
							OFFSET 27.841499 0.000000 0.000000
							CHANNELS 3 Xrotation Yrotation Zrotation
							JOINT mixamorig:LeftHand
							{
								OFFSET 28.328804 0.000000 0.000000
								CHANNELS 3 Xrotation Yrotation Zrotation
								JOINT mixamorig:LeftHandThumb1
								{
									OFFSET 2.466095 -1.576202 2.681697
									CHANNELS 6 Xposition Yposition Zposition Xrotation Yrotation Zrotation
									JOINT mixamorig:LeftHandThumb2
									{
										OFFSET 3.243317 -1.872528 1.872528
										CHANNELS 3 Xrotation Yrotation Zrotation
										JOINT mixamorig:LeftHandThumb3
										{
											OFFSET 2.647881 -1.528763 1.528755
											CHANNELS 3 Xrotation Yrotation Zrotation
											JOINT mixamorig:LeftHandThumb4
											{
												OFFSET 1.998924 -1.154068 1.154079
												CHANNELS 3 Xrotation Yrotation Zrotation
												End Site
												{
													OFFSET 1.884041 -1.149155 1.337651
												}
											}
										}
									}
								}
								JOINT mixamorig:LeftHandIndex1
								{
									OFFSET 9.109299 -0.518005 2.259899
									CHANNELS 6 Xposition Yposition Zposition Xrotation Yrotation Zrotation
									JOINT mixamorig:LeftHandIndex2
									{
										OFFSET 3.699997 0.000000 0.000000
										CHANNELS 3 Xrotation Yrotation Zrotation
										JOINT mixamorig:LeftHandIndex3
										{
											OFFSET 2.849998 0.000000 0.000000
											CHANNELS 3 Xrotation Yrotation Zrotation
											JOINT mixamorig:LeftHandIndex4
											{
												OFFSET 2.774902 0.000000 0.000000
												CHANNELS 3 Xrotation Yrotation Zrotation
												End Site
												{
													OFFSET 2.774902 0.000000 -0.000072
												}
											}
										}
									}
								}
								JOINT mixamorig:LeftHandMiddle1
								{
									OFFSET 9.533394 0.000000 0.000000
									CHANNELS 6 Xposition Yposition Zposition Xrotation Yrotation Zrotation
									JOINT mixamorig:LeftHandMiddle2
									{
										OFFSET 3.700005 0.000000 0.000000
										CHANNELS 3 Xrotation Yrotation Zrotation
										JOINT mixamorig:LeftHandMiddle3
										{
											OFFSET 2.949997 0.000000 0.000000
											CHANNELS 3 Xrotation Yrotation Zrotation
											JOINT mixamorig:LeftHandMiddle4
											{
												OFFSET 2.952904 0.000000 0.000000
												CHANNELS 3 Xrotation Yrotation Zrotation
												End Site
												{
													OFFSET 2.952896 0.000000 0.000165
												}
											}
										}
									}
								}
								JOINT mixamorig:LeftHandRing1
								{
									OFFSET 9.104500 -0.042999 -1.865100
									CHANNELS 6 Xposition Yposition Zposition Xrotation Yrotation Zrotation
									JOINT mixamorig:LeftHandRing2
									{
										OFFSET 3.149994 0.000000 0.000000
										CHANNELS 3 Xrotation Yrotation Zrotation
										JOINT mixamorig:LeftHandRing3
										{
											OFFSET 2.950005 0.000000 0.000000
											CHANNELS 3 Xrotation Yrotation Zrotation
											JOINT mixamorig:LeftHandRing4
											{
												OFFSET 2.644295 0.000000 0.000000
												CHANNELS 3 Xrotation Yrotation Zrotation
												End Site
												{
													OFFSET 2.644302 0.000000 0.000083
												}
											}
										}
									}
								}
								JOINT mixamorig:LeftHandPinky1
								{
									OFFSET 8.077797 -0.486893 -3.806301
									CHANNELS 6 Xposition Yposition Zposition Xrotation Yrotation Zrotation
									JOINT mixamorig:LeftHandPinky2
									{
										OFFSET 3.599998 0.000000 0.000000
										CHANNELS 3 Xrotation Yrotation Zrotation
										JOINT mixamorig:LeftHandPinky3
										{
											OFFSET 2.099998 0.000000 0.000000
											CHANNELS 3 Xrotation Yrotation Zrotation
											JOINT mixamorig:LeftHandPinky4
											{
												OFFSET 2.125504 0.000000 0.000000
												CHANNELS 3 Xrotation Yrotation Zrotation
												End Site
												{
													OFFSET 2.125504 0.000000 -0.001254
												}
											}
										}
									}
								}
							}
						}
					}
				}
			}
		}
	}
	JOINT mixamorig:RightUpLeg
	{
		OFFSET -8.207800 -6.751701 -1.599544
		CHANNELS 6 Xposition Yposition Zposition Xrotation Yrotation Zrotation
		JOINT mixamorig:RightLeg
		{
			OFFSET 0.000000 -44.370155 0.345934
			CHANNELS 3 Xrotation Yrotation Zrotation
			JOINT mixamorig:RightFoot
			{
				OFFSET 0.000000 -44.423664 -3.043536
				CHANNELS 3 Xrotation Yrotation Zrotation
				JOINT mixamorig:RightToeBase
				{
					OFFSET 0.000000 -8.728685 10.710592
					CHANNELS 3 Xrotation Yrotation Zrotation
					JOINT mixamorig:RightToe_End
					{
						OFFSET 0.000000 -0.000664 9.278099
						CHANNELS 3 Xrotation Yrotation Zrotation
						End Site
						{
							OFFSET 0.000000 -0.000664 9.278101
						}
					}
				}
			}
		}
	}
	JOINT mixamorig:LeftUpLeg
	{
		OFFSET 8.207800 -6.751701 -1.599544
		CHANNELS 6 Xposition Yposition Zposition Xrotation Yrotation Zrotation
		JOINT mixamorig:LeftLeg
		{
			OFFSET 0.000000 -44.370049 0.346940
			CHANNELS 3 Xrotation Yrotation Zrotation
			JOINT mixamorig:LeftFoot
			{
				OFFSET 0.000000 -44.423603 -3.044389
				CHANNELS 3 Xrotation Yrotation Zrotation
				JOINT mixamorig:LeftToeBase
				{
					OFFSET 0.000000 -8.728686 10.710592
					CHANNELS 3 Xrotation Yrotation Zrotation
					JOINT mixamorig:LeftToe_End
					{
						OFFSET 0.000000 -0.000680 9.278100
						CHANNELS 3 Xrotation Yrotation Zrotation
						End Site
						{
							OFFSET 0.000000 -0.000680 9.278100
						}
					}
				}
			}
		}
	}
}
MOTION
Frames: 4
Frame Time: 0.033333
0.478560 101.630875 1.555263 -0.893321 1.577732 -5.359102 0.000001 10.181546 0.131524 1.298039 -1.197538 3.016787 0.728743 0.264196 5.944685 0.710787 0.781494 5.851999 0.000002 16.740379 -2.049022 1.045308 -0.304693 -2.163987 0.000002 9.617822 1.684977 1.584931 0.544179 -8.140494 0.000000 22.037354 7.501070 0.000000 0.000000 -0.000000 -4.569997 11.014860 -2.160840 4.508131 3.324374 5.471588 -1.219689 0.655854 67.345419 -0.000010 17.736784 0.000009 -11.193107 -9.123280 10.139270 -2.464827 -1.573987 2.681910 18.491296 0.461461 -10.916076 1.284035 -32.757621 3.088944 2.008720 -8.430473 1.114713 -0.000002 0.000001 -0.000002 -9.108324 -0.517872 2.259801 0.339562 -4.671352 7.844284 0.387042 -2.823577 20.566251 -0.193131 -0.216341 13.843923 -0.000000 -0.000000 -0.000002 -9.532523 0.000010 0.000000 0.912577 -8.769258 15.831738 0.919088 -3.991126 33.400424 0.216464 -1.688815 15.898030 -0.000001 -0.000000 0.000002 -9.103611 -0.043100 -1.865100 2.555823 -11.673025 26.909202 1.710654 -3.886770 40.215474 -0.157960 0.035286 17.815328 -0.000001 -0.000000 -0.000000 -8.076715 -0.486719 -3.806300 5.576076 -16.029160 36.940641 1.378688 -4.077636 45.645628 -0.727743 -0.247555 22.122739 0.000000 0.000000 -0.000002 4.570403 11.014677 -2.160817 3.582358 -13.764044 -5.044474 4.032786 3.514246 -83.678348 -0.000007 -14.506750 0.000012 -27.592620 3.698772 -9.416208 2.466092 -1.576214 2.681689 18.491371 -0.461345 10.916050 1.284020 32.757601 -3.088994 2.117142 9.311166 -0.358620 0.000004 0.000000 -0.000001 9.109295 -0.518014 2.259897 0.339561 4.671360 -7.844258 0.387001 2.823617 -20.566226 0.034612 0.816852 -10.169820 -0.000000 -0.000003 0.000003 9.533392 -0.000002 -0.000000 0.912555 8.769285 -15.831716 0.919049 3.991192 -33.400390 0.170546 1.488896 -12.264421 -0.000000 0.000000 -0.000001 9.104496 -0.043000 -1.865099 2.555784 11.673070 -26.909176 1.710625 3.886854 -40.215471 0.544828 1.835096 -19.344144 0.000001 -0.000001 -0.000000 8.077788 -0.486895 -3.806301 5.576041 16.029238 -36.940610 1.378639 4.077717 -45.645594 0.486565 2.853424 -20.524725 0.000002 0.000000 -0.000000 -8.207796 -6.751718 -1.599544 -1.603456 -4.966749 10.554080 12.445174 -5.083589 3.268282 -9.845045 1.009956 -7.756602 -0.548653 0.000003 -0.000000 0.000000 -0.000000 -0.000000 8.207800 -6.751714 -1.599545 -19.556134 10.813018 15.936471 22.044833 9.498140 2.339177 -1.490668 3.351053 -8.781914 -0.441965 -0.000009 0.000004 0.000000 0.000000 0.000000 
0.302135 101.723778 1.584636 -0.872195 1.362758 -5.252348 -0.000002 10.181536 0.131523 1.282335 -1.164409 2.891567 0.726215 0.276976 5.913107 0.708586 0.794176 5.820315 -0.000002 16.740345 -2.049022 0.993824 -0.344099 -2.134533 -0.000003 9.617825 1.684978 1.295141 1.488483 -7.088121 0.000000 22.037354 7.501072 -0.000000 0.000000 -0.000000 -4.570000 11.014851 -2.160843 4.509220 3.311302 5.456559 -0.431229 -0.034673 67.449375 -0.000012 18.824555 -0.000003 -11.223975 -7.600169 10.841783 -2.464803 -1.573992 2.681912 18.491291 0.461460 -10.916083 1.284048 -32.757604 3.088949 2.008718 -8.430470 1.114709 -0.000004 -0.000000 -0.000001 -9.108309 -0.517859 2.259801 0.342175 -4.689982 8.030024 0.394669 -2.843784 20.780395 -0.192929 -0.221726 13.895445 0.000000 0.000000 0.000000 -9.532511 0.000023 -0.000001 0.923357 -8.785677 16.018732 0.930579 -4.009205 33.615333 0.217889 -1.693774 15.949605 -0.000000 -0.000000 0.000001 -9.103607 -0.043100 -1.865103 2.576304 -11.684148 27.097980 1.726137 -3.901710 40.431213 -0.157486 0.030017 17.866824 0.000000 -0.000000 -0.000000 -8.076717 -0.486717 -3.806302 5.587756 -16.044032 37.129404 1.392814 -4.093918 45.860438 -0.727963 -0.253392 22.174190 0.000001 0.000000 -0.000002 4.570399 11.014643 -2.160818 3.585405 -13.746361 -5.014247 4.374466 2.942219 -83.589768 0.000023 -14.991857 0.000019 -28.600983 4.088634 -8.391319 2.466081 -1.576218 2.681694 18.491381 -0.461345 10.916078 1.284010 32.757604 -3.088996 2.117143 9.311159 -0.358620 -0.000000 0.000002 -0.000001 9.109284 -0.518012 2.259899 0.345972 4.716481 -8.294641 0.405644 2.872578 -21.085569 0.036413 0.829391 -10.294741 0.000000 -0.000000 -0.000003 9.533396 0.000002 -0.000002 0.938758 8.809046 -16.285160 0.947056 4.034953 -33.921503 0.173572 1.501019 -12.389420 -0.000001 -0.000001 0.000001 9.104499 -0.043006 -1.865099 2.605543 11.699959 -27.366951 1.748220 3.922978 -40.738564 0.550075 1.846352 -19.469205 0.000000 0.000000 0.000000 8.077792 -0.486892 -3.806301 5.604539 16.065406 -37.398325 1.413041 4.117135 -46.166478 0.491734 2.864892 -20.649894 -0.000000 -0.000001 -0.000001 -8.207800 -6.751726 -1.599544 -1.164404 -4.937837 10.585397 11.539741 -4.677860 3.241867 -9.405071 0.855117 -7.943547 -0.596474 -0.000003 0.000001 -0.000000 -0.000001 0.000000 8.207796 -6.751708 -1.599545 -19.150633 10.861446 15.912408 21.358860 9.722506 2.250779 -1.138015 3.358012 -8.831424 -0.393468 0.000007 0.000001 0.000000 -0.000000 0.000000 
0.216170 101.812134 1.634720 -0.871865 1.077135 -5.108269 0.000001 10.181559 0.131524 1.265953 -1.141763 2.807338 0.722290 0.285703 5.894946 0.704851 0.802884 5.802080 0.000002 16.740362 -2.049022 0.936888 -0.380529 -2.097030 -0.000002 9.617827 1.684981 0.878302 2.531038 -6.083216 -0.000000 22.037369 7.501074 -0.000000 -0.000000 -0.000000 -4.569999 11.014872 -2.160841 4.509677 3.296127 5.426588 0.434144 -0.868903 67.565310 -0.000006 20.111560 0.000041 -11.219877 -5.944192 11.670322 -2.464789 -1.573981 2.681909 18.491284 0.461458 -10.916104 1.284051 -32.757611 3.088949 2.008720 -8.430472 1.114713 -0.000002 -0.000001 0.000000 -9.108292 -0.517863 2.259802 0.349893 -4.742777 8.556951 0.416728 -2.900969 21.388044 -0.192331 -0.236988 14.041537 0.000000 -0.000000 -0.000001 -9.532486 -0.000003 0.000000 0.954155 -8.831967 16.549325 0.963589 -4.060259 34.225006 0.221948 -1.707838 16.095913 0.000000 0.000000 -0.000000 -9.103601 -0.043096 -1.865100 2.634548 -11.715150 27.633634 1.770322 -3.943773 41.043269 -0.156108 0.015072 18.012898 -0.000000 -0.000000 0.000000 -8.076711 -0.486730 -3.806298 5.621153 -16.086023 37.665003 1.433272 -4.139854 46.469902 -0.728548 -0.269906 22.320131 0.000000 0.000001 -0.000000 4.570402 11.014672 -2.160818 3.587101 -13.733101 -5.010102 4.856245 2.108582 -83.466196 0.000006 -15.657558 -0.000002 -30.194132 4.566361 -6.926444 2.466073 -1.576218 2.681689 18.491364 -0.461342 10.916051 1.284005 32.757601 -3.088984 2.117141 9.311172 -0.358615 -0.000000 0.000002 0.000001 9.109304 -0.518011 2.259899 0.362299 4.821626 -9.345170 0.450882 2.986108 -22.297016 0.040697 0.858634 -10.586122 0.000002 0.000000 0.000001 9.533384 0.000002 0.000001 1.000945 8.900455 -17.343105 1.013916 4.136029 -35.137034 0.180728 1.529257 -12.680989 -0.000003 -0.000002 0.000002 9.104486 -0.042993 -1.865103 2.721911 11.760029 -28.434976 1.837208 4.005868 -41.958815 0.562396 1.872528 -19.760919 -0.000001 -0.000001 -0.000000 8.077795 -0.486898 -3.806300 5.671834 16.148346 -38.466304 1.494632 4.207838 -47.381582 0.503910 2.891643 -20.941857 -0.000001 -0.000001 -0.000000 -8.207794 -6.751709 -1.599543 -0.764119 -4.967730 10.487323 10.805670 -4.335424 3.234211 -9.046737 0.891429 -8.039157 -0.640654 0.000003 -0.000002 -0.000000 -0.000000 -0.000000 8.207799 -6.751699 -1.599544 -18.744991 11.040996 15.877190 20.775694 9.721275 2.061923 -0.887698 3.544948 -8.771326 -0.356672 -0.000007 0.000002 0.000000 -0.000000 0.000000 
0.262016 101.878235 1.701229 -0.886034 0.730716 -4.931086 0.000000 10.181563 0.131522 1.253656 -1.139305 2.769780 0.718222 0.286420 5.892749 0.700810 0.803650 5.799877 0.000004 16.740345 -2.049020 0.875494 -0.405181 -2.037372 -0.000003 9.617833 1.684982 0.347815 3.701238 -5.119909 0.000000 22.037399 7.501072 -0.000000 -0.000000 -0.000000 -4.569995 11.014849 -2.160839 4.509709 3.278833 5.385359 1.370250 -1.812495 67.672647 -0.000004 21.576115 0.000029 -11.206801 -4.188123 12.567395 -2.464808 -1.573988 2.681910 18.491277 0.461460 -10.916081 1.284049 -32.757618 3.088957 2.008716 -8.430465 1.114701 -0.000004 0.000003 -0.000002 -9.108317 -0.517884 2.259801 0.362898 -4.825055 9.379654 0.452423 -2.989769 22.336769 -0.191345 -0.260804 14.269606 0.000000 -0.000000 0.000004 -9.532522 0.000014 -0.000000 1.003027 -8.903397 17.377830 1.016188 -4.139246 35.176963 0.228360 -1.729769 16.324268 0.000000 -0.000000 -0.000000 -9.103610 -0.043109 -1.865100 2.725775 -11.761886 28.470045 1.840204 -4.008478 41.998898 -0.153884 -0.008274 18.240954 0.000000 -0.000001 0.000000 -8.076712 -0.486724 -3.806303 5.674114 -16.150976 38.501411 1.497389 -4.210693 47.421460 -0.729374 -0.295738 22.547984 0.000000 -0.000000 0.000001 4.570402 11.014626 -2.160816 3.586358 -13.731925 -5.038305 5.486320 0.998245 -83.309955 -0.000004 -16.505156 -0.000007 -32.463548 5.055510 -4.997865 2.466096 -1.576212 2.681690 18.491366 -0.461342 10.916034 1.284011 32.757598 -3.088984 2.117151 9.311161 -0.358632 0.000004 -0.000002 0.000001 9.109301 -0.518014 2.259900 0.391483 4.983948 -10.973856 0.525673 3.160117 -24.175113 0.047651 0.903922 -11.037785 0.000000 -0.000002 0.000001 9.533410 0.000017 -0.000000 1.100304 9.038755 -18.983613 1.121810 4.289832 -37.021592 0.192096 1.572961 -13.132927 -0.000000 -0.000000 -0.000000 9.104511 -0.042998 -1.865102 2.903277 11.846612 -30.091044 1.978630 4.130587 -43.850672 0.581752 1.912981 -20.213074 -0.000000 -0.000000 0.000000 8.077790 -0.486903 -3.806304 5.779407 16.274524 -40.122731 1.624902 4.344970 -49.265430 0.523025 2.932925 -21.394400 -0.000002 -0.000002 0.000001 -8.207796 -6.751720 -1.599544 -0.553435 -5.042617 10.243796 10.511153 -4.179353 3.213250 -8.897066 1.189829 -7.976384 -0.685168 0.000003 0.000000 -0.000000 0.000000 0.000000 8.207799 -6.751693 -1.599543 -18.402348 11.297011 15.792128 20.420754 9.655753 1.816815 -0.808067 3.794050 -8.624574 -0.359883 -0.000015 -0.000005 -0.000000 0.000000 0.000000 
